#N canvas 14 23 1206 571 12;
#N canvas 0 50 450 250 (subpatch) 0;
#X array source1 1.18788e+006 float 2;
#X coords 0 1 1.18788e+006 -1 200 140 1 0 0;
#X restore 10 243 graph;
#N canvas 0 50 450 250 (subpatch) 0;
#X array source2 682052 float 2;
#X coords 0 1 682052 -1 200 140 1 0 0;
#X restore 10 411 graph;
#N canvas 0 50 450 250 (subpatch) 0;
#X array source3 1.18788e+006 float 2;
#X coords 0 1 1.18788e+006 -1 200 140 1 0 0;
#X restore 293 243 graph;
#N canvas 0 50 450 250 (subpatch) 0;
#X array source4 355274 float 2;
#X coords 0 1 355274 -1 200 140 1 0 0;
#X restore 294 411 graph;
#N canvas 0 50 450 250 (subpatch) 0;
#X array source5 1.18788e+006 float 2;
#X coords 0 1 1.18788e+006 -1 200 140 1 0 0;
#X restore 576 243 graph;
#N canvas 0 50 450 250 (subpatch) 0;
#X array source6 2.36618e+007 float 2;
#X coords 0 1 2.36618e+007 -1 200 140 1 0 0;
#X restore 576 411 graph;
#N canvas 0 50 450 250 (subpatch) 0;
#X array source7 1.18788e+006 float 2;
#X coords 0 1 1.18788e+006 -1 200 140 1 0 0;
#X restore 859 243 graph;
#N canvas 0 50 450 250 (subpatch) 0;
#X array source8 100 float 3;
#A 0 0 0 0 0 0 0 0 0 0 0 0 0 0 0 0 0 0 0 0 0 0 0 0 0 0 0 0 0 0 0 0
0 0 0 0 0 0 0 0 0 0 0 0 0 0 0 0 0 0 0 0 0 0 0 0 0 0 0 0 0 0 0 0 0 0
0 0 0 0 0 0 0 0 0 0 0 0 0 0 0 0 0 0 0 0 0 0 0 0 0 0 0 0 0 0 0 0 0 0
0;
#X coords 0 1 100 -1 200 140 1 0 0;
#X restore 859 411 graph;
#X obj 236 368 bng 15 250 50 0 load1 empty load 17 7 0 10 -262144 -1
-1;
#X obj 236 535 bng 15 250 50 0 load2 empty load 17 7 0 10 -262144 -1
-1;
#X obj 519 368 bng 15 250 50 0 load3 empty load 17 7 0 10 -262144 -1
-1;
#X obj 519 535 bng 15 250 50 0 load4 empty load 17 7 0 10 -262144 -1
-1;
#X obj 802 368 bng 15 250 50 0 load5 empty load 17 7 0 10 -262144 -1
-1;
#X obj 802 535 bng 15 250 50 0 load6 empty load 17 7 0 10 -262144 -1
-1;
#X obj 1085 368 bng 15 250 50 0 load7 load7 load 17 7 0 10 -262144
-1 -1;
#X obj 1085 535 bng 15 250 50 0 load8 empty load 17 7 0 10 -262144
-1 -1;
#N canvas 171 163 1126 300 loadsource 0;
#X obj 13 13 r load1;
#X obj 13 87 soundfiler;
#X obj 13 39 openpanel;
#X msg 13 64 read -resize \$1 source1;
#X obj 13 110 send filelength1;
#X obj 193 86 soundfiler;
#X obj 193 38 openpanel;
#X obj 368 85 soundfiler;
#X obj 368 37 openpanel;
#X obj 548 84 soundfiler;
#X obj 548 36 openpanel;
#X obj 13 219 soundfiler;
#X obj 13 171 openpanel;
#X obj 193 218 soundfiler;
#X obj 193 170 openpanel;
#X obj 368 217 soundfiler;
#X obj 368 169 openpanel;
#X obj 548 216 soundfiler;
#X obj 548 168 openpanel;
#X obj 193 12 r load2;
#X msg 193 63 read -resize \$1 source2;
#X obj 193 109 send filelength2;
#X obj 368 11 r load3;
#X msg 368 62 read -resize \$1 source3;
#X obj 368 108 send filelength3;
#X obj 548 10 r load4;
#X msg 548 61 read -resize \$1 source4;
#X obj 548 107 send filelength4;
#X obj 13 145 r load5;
#X msg 13 196 read -resize \$1 source5;
#X obj 13 242 send filelength5;
#X obj 193 144 r load6;
#X msg 193 195 read -resize \$1 source6;
#X obj 193 241 send filelength6;
#X obj 368 143 r load7;
#X msg 368 194 read -resize \$1 source7;
#X obj 368 240 send filelength7;
#X obj 548 142 r load8;
#X msg 548 193 read -resize \$1 source8;
#X obj 548 239 send filelength8;
#X connect 0 0 2 0;
#X connect 1 0 4 0;
#X connect 2 0 3 0;
#X connect 3 0 1 0;
#X connect 5 0 21 0;
#X connect 6 0 20 0;
#X connect 7 0 24 0;
#X connect 8 0 23 0;
#X connect 9 0 27 0;
#X connect 10 0 26 0;
#X connect 11 0 30 0;
#X connect 12 0 29 0;
#X connect 13 0 33 0;
#X connect 14 0 32 0;
#X connect 15 0 36 0;
#X connect 16 0 35 0;
#X connect 17 0 39 0;
#X connect 18 0 38 0;
#X connect 19 0 6 0;
#X connect 20 0 5 0;
#X connect 22 0 8 0;
#X connect 23 0 7 0;
#X connect 25 0 10 0;
#X connect 26 0 9 0;
#X connect 28 0 12 0;
#X connect 29 0 11 0;
#X connect 31 0 14 0;
#X connect 32 0 13 0;
#X connect 34 0 16 0;
#X connect 35 0 15 0;
#X connect 37 0 18 0;
#X connect 38 0 17 0;
#X restore 991 205 pd loadsource;
#N canvas -6 0 1357 676 soundgenerator 0;
#X obj 47 226 phasor~;
#X obj 47 262 *~;
#X obj 106 201 r filelength1;
#X floatatom 106 227 10 0 0 0 - - -;
#X obj 47 176 expr 1/($f1/44100);
#X floatatom 47 202 5 0 0 0 - - -;
#X obj 47 150 + 1e-005;
#X obj 806 647 dac~;
#X obj 51 48 hsl 128 15 0.5 2 0 0 empty rate1 empty -2 -8 0 10 -262144
-1 -1 12700 1;
#X obj 47 99 *;
#X floatatom 47 125 10 0 0 0 - - -;
#X obj 47 70 t f b;
#X obj 212 225 phasor~;
#X obj 212 261 *~;
#X floatatom 271 226 10 0 0 0 - - -;
#X obj 212 175 expr 1/($f1/44100);
#X floatatom 212 201 5 0 0 0 - - -;
#X obj 212 149 + 1e-005;
#X obj 216 47 hsl 128 15 0.5 2 0 0 empty rate2 empty -2 -8 0 10 -262144
-1 -1 5300 1;
#X obj 212 98 *;
#X floatatom 212 124 10 0 0 0 - - -;
#X obj 212 69 t f b;
#X obj 375 224 phasor~;
#X obj 375 260 *~;
#X floatatom 434 225 10 0 0 0 - - -;
#X obj 375 174 expr 1/($f1/44100);
#X floatatom 375 200 5 0 0 0 - - -;
#X obj 375 148 + 1e-005;
#X obj 379 46 hsl 128 15 0.5 2 0 0 empty rate3 empty -2 -8 0 10 -262144
-1 -1 11373 1;
#X obj 375 97 *;
#X floatatom 375 123 10 0 0 0 - - -;
#X obj 375 68 t f b;
#X obj 541 224 phasor~;
#X obj 540 259 *~;
#X floatatom 600 225 10 0 0 0 - - -;
#X obj 541 174 expr 1/($f1/44100);
#X floatatom 540 199 5 0 0 0 - - -;
#X obj 541 148 + 1e-005;
#X obj 545 46 hsl 128 15 0.5 2 0 0 empty rate4 empty -2 -8 0 10 -262144
-1 -1 3033 1;
#X obj 540 96 *;
#X floatatom 541 123 10 0 0 0 - - -;
#X obj 540 67 t f b;
#X obj 45 543 phasor~;
#X obj 45 579 *~;
#X floatatom 104 544 10 0 0 0 - - -;
#X obj 45 493 expr 1/($f1/44100);
#X floatatom 45 519 5 0 0 0 - - -;
#X obj 45 467 + 1e-005;
#X obj 48 365 hsl 128 15 0.5 2 0 0 empty rate5 empty -2 -8 0 10 -262144
-1 -1 7772 1;
#X obj 45 416 *;
#X floatatom 45 442 10 0 0 0 - - -;
#X obj 45 387 t f b;
#X obj 210 542 phasor~;
#X obj 210 578 *~;
#X floatatom 269 543 10 0 0 0 - - -;
#X obj 210 492 expr 1/($f1/44100);
#X floatatom 210 518 5 0 0 0 - - -;
#X obj 210 466 + 1e-005;
#X obj 214 364 hsl 128 15 0.5 2 0 0 empty rate6 empty -2 -8 0 10 -262144
-1 -1 6066 1;
#X obj 210 415 *;
#X floatatom 210 441 10 0 0 0 - - -;
#X obj 210 386 t f b;
#X obj 373 541 phasor~;
#X obj 373 577 *~;
#X floatatom 432 542 10 0 0 0 - - -;
#X obj 373 491 expr 1/($f1/44100);
#X floatatom 373 517 5 0 0 0 - - -;
#X obj 373 465 + 1e-005;
#X obj 377 363 hsl 128 15 0.5 2 0 0 empty rate7 empty -2 -8 0 10 -262144
-1 -1 9193 1;
#X obj 373 414 *;
#X floatatom 373 440 10 0 0 0 - - -;
#X obj 373 385 t f b;
#X obj 538 540 phasor~;
#X obj 538 576 *~;
#X floatatom 597 541 10 0 0 0 - - -;
#X obj 538 490 expr 1/($f1/44100);
#X floatatom 538 516 5 0 0 0 - - -;
#X obj 538 464 + 1e-005;
#X obj 542 362 hsl 128 15 0.5 2 0 0 empty rate8 empty -2 -8 0 10 -262144
-1 -1 0 1;
#X obj 538 413 *;
#X floatatom 538 439 10 0 0 0 - - -;
#X obj 538 384 t f b;
#X obj 46 289 tabread~ source1;
#X obj 271 200 r filelength2;
#X obj 211 288 tabread~ source2;
#X obj 434 199 r filelength3;
#X obj 374 287 tabread~ source3;
#X obj 600 199 r filelength4;
#X obj 540 287 tabread~ source4;
#X obj 104 518 r filelength5;
#X obj 44 606 tabread~ source5;
#X obj 269 517 r filelength6;
#X obj 209 605 tabread~ source6;
#X obj 432 516 r filelength7;
#X obj 372 604 tabread~ source7;
#X obj 597 515 r filelength8;
#X obj 537 603 tabread~ source8;
#X obj 46 323 s~ sound1;
#X obj 212 321 s~ sound2;
#X obj 375 320 s~ sound3;
#X obj 541 318 s~ sound4;
#X obj 43 636 s~ sound5;
#X obj 209 634 s~ sound6;
#X obj 372 633 s~ sound7;
#X obj 538 631 s~ sound8;
#X obj 839 160 metro 500;
#X obj 839 208 f;
#X obj 839 187 bng 15 250 50 0 empty empty empty 17 7 0 10 -262144
-1 -1;
#X obj 874 208 + 1;
#X obj 839 234 mod 8;
#X floatatom 839 260 5 0 0 0 - - -;
#X obj 839 287 route 1 2 3 4 5 6 7;
#X msg 1063 180 1 0 0 0 0 0 0 0;
#X msg 1063 205 0 1 0 0 0 0 0 0;
#X msg 1063 231 0 0 1 0 0 0 0 0;
#X msg 1063 257 0 0 0 1 0 0 0 0;
#X msg 1063 283 0 0 0 0 1 0 0 0;
#X msg 1063 309 0 0 0 0 0 1 0 0;
#X msg 1063 335 0 0 0 0 0 0 1 0;
#X msg 1063 362 0 0 0 0 0 0 0 1;
#X obj 697 563 *~;
#X obj 839 139 tgl 15 0 empty meton empty 17 7 0 10 -262144 -1 -1 0
1;
#X obj 1063 389 unpack f f f f f f f f;
#X obj 715 535 lop~ 20;
#X obj 757 563 *~;
#X obj 775 535 lop~ 20;
#X obj 817 563 *~;
#X obj 835 535 lop~ 20;
#X obj 877 563 *~;
#X obj 895 535 lop~ 20;
#X obj 938 563 *~;
#X obj 956 535 lop~ 20;
#X obj 998 563 *~;
#X obj 1016 535 lop~ 20;
#X obj 1057 563 *~;
#X obj 1075 535 lop~ 20;
#X obj 1117 563 *~;
#X obj 1135 535 lop~ 20;
#X obj 715 475 +~;
#X obj 716 502 clip~ 0 1;
#X obj 786 475 +~;
#X obj 787 502 clip~ 0 1;
#X obj 858 475 +~;
#X obj 859 502 clip~ 0 1;
#X obj 929 475 +~;
#X obj 930 502 clip~ 0 1;
#X obj 1002 475 +~;
#X obj 1003 502 clip~ 0 1;
#X obj 1073 475 +~;
#X obj 1074 502 clip~ 0 1;
#X obj 1145 475 +~;
#X obj 1146 502 clip~ 0 1;
#X obj 1216 475 +~;
#X obj 1217 502 clip~ 0 1;
#X obj 810 619 *~;
#X text 873 614 Maybe add panning in the future;
#X obj 697 444 r~ sound1;
#X obj 768 444 r~ sound2;
#X obj 839 444 r~ sound3;
#X obj 910 444 r~ sound4;
#X obj 982 444 r~ sound5;
#X obj 1053 444 r~ sound6;
#X obj 1124 444 r~ sound7;
#X obj 1195 444 r~ sound8;
#N canvas 238 98 1078 522 steplength 0;
#X floatatom 670 57 5 0 0 0 - - -;
#X obj 670 31 expr 1000/($f1/60);
#X obj 670 5 r bpm;
#X obj 742 114 r steps1;
#X obj 754 140 r steps2;
#X obj 766 166 r steps3;
#X obj 778 192 r steps4;
#X obj 790 218 r steps5;
#X obj 802 244 r steps6;
#X obj 814 270 r steps7;
#X obj 826 296 r steps8;
#X obj 724 160 *;
#X obj 736 186 *;
#X obj 748 212 *;
#X obj 760 238 *;
#X obj 772 264 *;
#X obj 784 290 *;
#X obj 796 316 *;
#X obj 808 342 *;
#X obj 815 47 r trig1;
#X msg 565 22 set \$1;
#X msg 565 51 262.87;
#X msg 576 82 set \$1;
#X msg 576 111 65.7174;
#X msg 585 142 set \$1;
#X msg 585 171 131.435;
#X msg 596 202 set \$1;
#X msg 596 231 197.152;
#X msg 607 262 set \$1;
#X msg 607 291 65.7174;
#X msg 618 322 set \$1;
#X msg 618 351 131.435;
#X msg 627 382 set \$1;
#X msg 627 411 197.152;
#X msg 638 442 set \$1;
#X msg 638 471 0;
#X obj 670 114 t b f;
#X obj 460 436 s metstep;
#X obj 825 75 r trig2;
#X obj 835 103 r trig3;
#X obj 845 131 r trig4;
#X obj 855 157 r trig5;
#X obj 865 185 r trig6;
#X obj 875 213 r trig7;
#X obj 885 241 r trig8;
#X connect 0 0 36 0;
#X connect 1 0 0 0;
#X connect 2 0 1 0;
#X connect 3 0 11 0;
#X connect 4 0 12 0;
#X connect 5 0 13 0;
#X connect 6 0 14 0;
#X connect 7 0 15 0;
#X connect 8 0 16 0;
#X connect 9 0 17 0;
#X connect 10 0 18 0;
#X connect 11 0 20 0;
#X connect 12 0 22 0;
#X connect 13 0 24 0;
#X connect 14 0 26 0;
#X connect 15 0 28 0;
#X connect 16 0 30 0;
#X connect 17 0 32 0;
#X connect 18 0 34 0;
#X connect 19 0 21 0;
#X connect 20 0 21 0;
#X connect 21 0 37 0;
#X connect 22 0 23 0;
#X connect 23 0 37 0;
#X connect 24 0 25 0;
#X connect 25 0 37 0;
#X connect 26 0 27 0;
#X connect 27 0 37 0;
#X connect 28 0 29 0;
#X connect 29 0 37 0;
#X connect 30 0 31 0;
#X connect 31 0 37 0;
#X connect 32 0 33 0;
#X connect 33 0 37 0;
#X connect 34 0 35 0;
#X connect 35 0 37 0;
#X connect 36 0 11 0;
#X connect 36 0 12 0;
#X connect 36 0 13 0;
#X connect 36 0 14 0;
#X connect 36 0 15 0;
#X connect 36 0 16 0;
#X connect 36 0 17 0;
#X connect 36 0 18 0;
#X connect 36 1 18 1;
#X connect 36 1 17 1;
#X connect 36 1 16 1;
#X connect 36 1 15 1;
#X connect 36 1 14 1;
#X connect 36 1 12 1;
#X connect 36 1 11 1;
#X connect 36 1 13 1;
#X connect 38 0 23 0;
#X connect 39 0 25 0;
#X connect 40 0 27 0;
#X connect 41 0 29 0;
#X connect 42 0 31 0;
#X connect 43 0 33 0;
#X connect 44 0 35 0;
#X restore 1098 65 pd steplength;
#X obj 784 379 s trig1;
#X obj 795 406 s trig2;
#X obj 844 379 s trig3;
#X obj 855 406 s trig4;
#X obj 904 379 s trig5;
#X obj 915 406 s trig6;
#X obj 964 379 s trig7;
#X obj 975 406 s trig8;
#X obj 899 104 r metstep;
#X obj 899 130 clip 1 10000;
#X obj 1129 596 s tog1;
#X obj 1130 623 s tog2;
#X obj 1180 596 s tog3;
#X obj 1181 623 s tog4;
#X obj 1232 596 s tog5;
#X obj 1233 623 s tog6;
#X obj 1284 596 s tog7;
#X obj 1285 623 s tog8;
#X floatatom 850 596 5 0 0 0 - mastvol -;
#X obj 1223 307 r stepblend;
#X connect 0 0 1 0;
#X connect 1 0 82 0;
#X connect 2 0 3 0;
#X connect 3 0 1 1;
#X connect 3 0 9 0;
#X connect 4 0 5 0;
#X connect 5 0 0 0;
#X connect 6 0 4 0;
#X connect 8 0 11 0;
#X connect 9 0 10 0;
#X connect 10 0 6 0;
#X connect 11 0 9 1;
#X connect 11 1 9 0;
#X connect 12 0 13 0;
#X connect 13 0 84 0;
#X connect 14 0 13 1;
#X connect 14 0 19 0;
#X connect 15 0 16 0;
#X connect 16 0 12 0;
#X connect 17 0 15 0;
#X connect 18 0 21 0;
#X connect 19 0 20 0;
#X connect 20 0 17 0;
#X connect 21 0 19 1;
#X connect 21 1 19 0;
#X connect 22 0 23 0;
#X connect 23 0 86 0;
#X connect 24 0 23 1;
#X connect 24 0 29 0;
#X connect 25 0 26 0;
#X connect 26 0 22 0;
#X connect 27 0 25 0;
#X connect 28 0 31 0;
#X connect 29 0 30 0;
#X connect 30 0 27 0;
#X connect 31 0 29 1;
#X connect 31 1 29 0;
#X connect 32 0 33 0;
#X connect 33 0 88 0;
#X connect 34 0 33 1;
#X connect 34 0 39 0;
#X connect 35 0 36 0;
#X connect 36 0 32 0;
#X connect 37 0 35 0;
#X connect 38 0 41 0;
#X connect 39 0 40 0;
#X connect 40 0 37 0;
#X connect 41 0 39 1;
#X connect 41 1 39 0;
#X connect 42 0 43 0;
#X connect 43 0 90 0;
#X connect 44 0 43 1;
#X connect 44 0 49 0;
#X connect 45 0 46 0;
#X connect 46 0 42 0;
#X connect 47 0 45 0;
#X connect 48 0 51 0;
#X connect 49 0 50 0;
#X connect 50 0 47 0;
#X connect 51 0 49 1;
#X connect 51 1 49 0;
#X connect 52 0 53 0;
#X connect 53 0 92 0;
#X connect 54 0 53 1;
#X connect 54 0 59 0;
#X connect 55 0 56 0;
#X connect 56 0 52 0;
#X connect 57 0 55 0;
#X connect 58 0 61 0;
#X connect 59 0 60 0;
#X connect 60 0 57 0;
#X connect 61 0 59 1;
#X connect 61 1 59 0;
#X connect 62 0 63 0;
#X connect 63 0 94 0;
#X connect 64 0 63 1;
#X connect 64 0 69 0;
#X connect 65 0 66 0;
#X connect 66 0 62 0;
#X connect 67 0 65 0;
#X connect 68 0 71 0;
#X connect 69 0 70 0;
#X connect 70 0 67 0;
#X connect 71 0 69 1;
#X connect 71 1 69 0;
#X connect 72 0 73 0;
#X connect 73 0 96 0;
#X connect 74 0 73 1;
#X connect 74 0 79 0;
#X connect 75 0 76 0;
#X connect 76 0 72 0;
#X connect 77 0 75 0;
#X connect 78 0 81 0;
#X connect 79 0 80 0;
#X connect 80 0 77 0;
#X connect 81 0 79 1;
#X connect 81 1 79 0;
#X connect 82 0 97 0;
#X connect 83 0 14 0;
#X connect 84 0 98 0;
#X connect 85 0 24 0;
#X connect 86 0 99 0;
#X connect 87 0 34 0;
#X connect 88 0 100 0;
#X connect 89 0 44 0;
#X connect 90 0 101 0;
#X connect 91 0 54 0;
#X connect 92 0 102 0;
#X connect 93 0 64 0;
#X connect 94 0 103 0;
#X connect 95 0 74 0;
#X connect 96 0 104 0;
#X connect 105 0 107 0;
#X connect 106 0 108 0;
#X connect 106 0 109 0;
#X connect 107 0 106 0;
#X connect 108 0 106 1;
#X connect 109 0 110 0;
#X connect 110 0 111 0;
#X connect 111 0 113 0;
#X connect 111 0 166 0;
#X connect 111 1 114 0;
#X connect 111 1 167 0;
#X connect 111 2 115 0;
#X connect 111 2 168 0;
#X connect 111 3 116 0;
#X connect 111 3 169 0;
#X connect 111 4 117 0;
#X connect 111 4 170 0;
#X connect 111 5 118 0;
#X connect 111 5 171 0;
#X connect 111 6 119 0;
#X connect 111 6 172 0;
#X connect 111 7 112 0;
#X connect 111 7 165 0;
#X connect 112 0 122 0;
#X connect 113 0 122 0;
#X connect 114 0 122 0;
#X connect 115 0 122 0;
#X connect 116 0 122 0;
#X connect 117 0 122 0;
#X connect 118 0 122 0;
#X connect 119 0 122 0;
#X connect 120 0 154 0;
#X connect 121 0 105 0;
#X connect 122 0 138 0;
#X connect 122 0 175 0;
#X connect 122 1 140 0;
#X connect 122 1 176 0;
#X connect 122 2 142 0;
#X connect 122 2 177 0;
#X connect 122 3 144 0;
#X connect 122 3 178 0;
#X connect 122 4 146 0;
#X connect 122 4 179 0;
#X connect 122 5 148 0;
#X connect 122 5 180 0;
#X connect 122 6 150 0;
#X connect 122 6 181 0;
#X connect 122 7 152 0;
#X connect 122 7 182 0;
#X connect 123 0 120 1;
#X connect 124 0 154 0;
#X connect 125 0 124 1;
#X connect 126 0 154 0;
#X connect 127 0 126 1;
#X connect 128 0 154 0;
#X connect 129 0 128 1;
#X connect 130 0 154 0;
#X connect 131 0 130 1;
#X connect 132 0 154 0;
#X connect 133 0 132 1;
#X connect 134 0 154 0;
#X connect 135 0 134 1;
#X connect 136 0 154 0;
#X connect 137 0 136 1;
#X connect 138 0 139 0;
#X connect 139 0 123 0;
#X connect 140 0 141 0;
#X connect 141 0 125 0;
#X connect 142 0 143 0;
#X connect 143 0 127 0;
#X connect 144 0 145 0;
#X connect 145 0 129 0;
#X connect 146 0 147 0;
#X connect 147 0 131 0;
#X connect 148 0 149 0;
#X connect 149 0 133 0;
#X connect 150 0 151 0;
#X connect 151 0 135 0;
#X connect 152 0 153 0;
#X connect 153 0 137 0;
#X connect 154 0 7 0;
#X connect 154 0 7 1;
#X connect 156 0 120 0;
#X connect 157 0 124 0;
#X connect 158 0 126 0;
#X connect 159 0 128 0;
#X connect 160 0 130 0;
#X connect 161 0 132 0;
#X connect 162 0 134 0;
#X connect 163 0 136 0;
#X connect 173 0 174 0;
#X connect 174 0 105 1;
#X connect 183 0 154 1;
#X connect 184 0 137 1;
#X connect 184 0 135 1;
#X connect 184 0 133 1;
#X connect 184 0 131 1;
#X connect 184 0 129 1;
#X connect 184 0 127 1;
#X connect 184 0 125 1;
#X connect 184 0 123 1;
#X restore 963 177 pd soundgenerator;
#X text 935 80 Perfect key interface;
#X text 956 99 MakeStereo/Panning;
#X text 1054 42 TODO;
#X floatatom 386 96 5 0 0 0 BPM - bpm;
#X obj 216 245 vsl 15 135 0.5 2 0 0 rate1 empty tune 0 -9 0 10 -262144
-1 -1 13400 1;
#X obj 499 245 vsl 15 135 0.5 2 0 0 rate3 empty tune 0 -9 0 10 -262144
-1 -1 12000 1;
#X obj 782 245 vsl 15 135 0.5 2 0 0 rate5 empty tune 0 -9 0 10 -262144
-1 -1 8200 1;
#X obj 1065 245 vsl 15 135 0.5 2 0 0 rate7 empty tune 0 -9 0 10 -262144
-1 -1 9700 1;
#X obj 216 413 vsl 15 135 0.5 2 0 0 rate2 empty tune 0 -9 0 10 -262144
-1 -1 0 1;
#X obj 499 413 vsl 15 135 0.5 2 0 0 rate4 empty tune 0 -9 0 10 -262144
-1 -1 3200 1;
#X obj 782 413 vsl 15 135 0.5 2 0 0 rate6 empty tune 0 -9 0 10 -262144
-1 -1 6400 1;
#X obj 1065 413 vsl 15 135 0.5 2 0 0 empty empty tune 0 -9 0 10 -262144
-1 -1 0 1;
#X obj 63 86 vradio 15 1 0 5 steps1 empty 1 0 -8 0 10 -262144 -1 -1
4;
#X obj 88 86 vradio 15 1 0 5 steps2 empty 2 0 -8 0 10 -262144 -1 -1
1;
#X obj 113 86 vradio 15 1 0 5 steps3 empty 3 0 -8 0 10 -262144 -1 -1
2;
#X obj 138 86 vradio 15 1 0 5 steps4 empty 4 0 -8 0 10 -262144 -1 -1
3;
#X obj 163 86 vradio 15 1 0 5 steps5 empty 5 0 -8 0 10 -262144 -1 -1
1;
#X obj 188 86 vradio 15 1 0 5 steps6 empty 6 0 -8 0 10 -262144 -1 -1
2;
#X obj 213 86 vradio 15 1 0 5 steps7 empty 7 0 -8 0 10 -262144 -1 -1
3;
#X obj 238 86 vradio 15 1 0 5 steps8 empty 8 0 -8 0 10 -262144 -1 -1
0;
#X obj 293 131 hsl 128 15 20 0.01 0 0 stepblend empty Step_blend -2
-8 0 10 -262144 -1 -1 7900 1;
#X text 61 46 Step length;
#X obj 290 97 tgl 15 0 meton empty Clock 17 7 0 10 -262144 -1 -1 0
1;
#X obj 63 165 tgl 15 0 empty tog1 empty 17 7 0 10 -262144 -1 -1 0 1
;
#X obj 88 165 tgl 15 0 empty tog2 empty 17 7 0 10 -262144 -1 -1 0 1
;
#X obj 113 165 tgl 15 0 empty tog3 empty 17 7 0 10 -262144 -1 -1 0
1;
#X obj 138 165 tgl 15 0 empty tog4 empty 17 7 0 10 -262144 -1 -1 1
1;
#X obj 164 165 tgl 15 0 empty tog5 empty 17 7 0 10 -262144 -1 -1 0
1;
#X obj 188 165 tgl 15 0 empty tog6 empty 17 7 0 10 -262144 -1 -1 0
1;
#X obj 213 165 tgl 15 0 empty tog7 empty 17 7 0 10 -262144 -1 -1 0
1;
#X obj 238 165 tgl 15 0 empty tog8 empty 17 7 0 10 -262144 -1 -1 0
1;
#X obj 293 164 hsl 128 15 0 1 0 0 mastvol empty MasterVol -2 -8 0 10
-262144 -1 -1 0 1;
#X text 914 61 > Revise tempo component;
#X text 984 118 Make init load;
#X text 977 138 Midi Clock sync;
