#N canvas 310 146 760 455 12;
#X obj 292 42 spigot;
#X obj 342 42 spigot;
#X obj 392 42 spigot;
#X obj 442 42 spigot;
#X obj 492 42 spigot;
#X obj 542 42 spigot;
#X obj 592 42 spigot;
#X obj 642 42 spigot;
#X obj 331 12 tgl 15 0 empty empty empty 17 7 0 10 -262144 -1 -1 1
1;
#X obj 381 12 tgl 15 0 empty empty empty 17 7 0 10 -262144 -1 -1 0
1;
#X obj 431 12 tgl 15 0 empty empty empty 17 7 0 10 -262144 -1 -1 1
1;
#X obj 481 12 tgl 15 0 empty empty empty 17 7 0 10 -262144 -1 -1 0
1;
#X obj 531 12 tgl 15 0 empty empty empty 17 7 0 10 -262144 -1 -1 0
1;
#X obj 581 12 tgl 15 0 empty empty empty 17 7 0 10 -262144 -1 -1 0
1;
#X obj 631 12 tgl 15 0 empty empty empty 17 7 0 10 -262144 -1 -1 0
1;
#X obj 681 12 tgl 15 0 empty empty empty 17 7 0 10 -262144 -1 -1 0
1;
#X obj 242 126 f;
#X obj 272 126 + 1;
#X obj 242 152 mod 8;
#X obj 242 178 route 1 2 3 4 5 6 7;
#X obj 242 100 until;
#X obj 47 208 hradio 15 1 0 8 empty empty empty 0 -8 0 10 -262144 -1
-1 2;
#X obj 292 12 bng 15 250 50 0 empty empty empty 17 7 0 10 -262144 -1
-1;
#X msg 242 72 8;
#X connect 0 0 20 1;
#X connect 1 0 20 1;
#X connect 2 0 20 1;
#X connect 3 0 20 1;
#X connect 4 0 20 1;
#X connect 5 0 20 1;
#X connect 6 0 20 1;
#X connect 7 0 20 1;
#X connect 8 0 0 1;
#X connect 9 0 1 1;
#X connect 10 0 2 1;
#X connect 11 0 3 1;
#X connect 12 0 4 1;
#X connect 13 0 5 1;
#X connect 14 0 6 1;
#X connect 15 0 7 1;
#X connect 16 0 17 0;
#X connect 16 0 18 0;
#X connect 17 0 16 1;
#X connect 18 0 19 0;
#X connect 18 0 21 0;
#X connect 19 0 1 0;
#X connect 19 1 2 0;
#X connect 19 2 3 0;
#X connect 19 3 4 0;
#X connect 19 4 5 0;
#X connect 19 5 6 0;
#X connect 19 6 7 0;
#X connect 19 7 22 0;
#X connect 20 0 16 0;
#X connect 22 0 0 0;
#X connect 23 0 20 0;
