#N canvas -8 -8 1366 685 12;
#X obj 63 106 vradio 15 1 0 5 steps1 empty 1 0 -8 0 10 -262144 -1 -1
3;
#X obj 88 106 vradio 15 1 0 5 steps2 empty 2 0 -8 0 10 -262144 -1 -1
1;
#X obj 113 106 vradio 15 1 0 5 steps3 empty 3 0 -8 0 10 -262144 -1
-1 0;
#X obj 138 106 vradio 15 1 0 5 steps4 empty 4 0 -8 0 10 -262144 -1
-1 1;
#X obj 163 106 vradio 15 1 0 5 steps5 empty 5 0 -8 0 10 -262144 -1
-1 3;
#X obj 188 106 vradio 15 1 0 5 steps6 empty 6 0 -8 0 10 -262144 -1
-1 0;
#X obj 213 106 vradio 15 1 0 5 steps7 empty 7 0 -8 0 10 -262144 -1
-1 4;
#X obj 238 106 vradio 15 1 0 5 steps8 empty 8 0 -8 0 10 -262144 -1
-1 0;
#X obj 346 106 tgl 15 0 empty onclip1 empty 17 7 0 10 -262144 -1 -1
1 1;
#X obj 346 126 hradio 15 1 0 8 empty seqstep empty 0 -8 0 10 -262144
-1 -1 5;
#X floatatom 217 60 5 0 0 0 BPM initbpm bpm;
#X obj 504 106 hsl 128 15 10 0.05 0 0 stepblend empty Step_blend -2
-8 0 10 -262144 -1 -1 0 1;
#X obj 41 62 tgl 15 0 meton empty Clock 17 7 0 10 -262144 -1 -1 0 1
;
#X obj 504 139 hsl 128 15 0 1 0 0 mastvol empty MasterVol -2 -8 0 10
-262144 -1 -1 0 1;
#N canvas 33 0 830 676 skip_seq 0;
#X obj 292 42 spigot;
#X obj 342 42 spigot;
#X obj 392 42 spigot;
#X obj 442 42 spigot;
#X obj 492 42 spigot;
#X obj 542 42 spigot;
#X obj 592 42 spigot;
#X obj 642 42 spigot;
#X obj 331 12 tgl 15 0 empty onclip1 empty 17 7 0 10 -262144 -1 -1
1 1;
#X obj 381 12 tgl 15 0 empty onclip2 empty 17 7 0 10 -262144 -1 -1
1 1;
#X obj 431 12 tgl 15 0 empty onclip3 empty 17 7 0 10 -262144 -1 -1
1 1;
#X obj 481 12 tgl 15 0 empty onclip4 empty 17 7 0 10 -262144 -1 -1
1 1;
#X obj 531 12 tgl 15 0 empty onclip5 empty 17 7 0 10 -262144 -1 -1
1 1;
#X obj 581 12 tgl 15 0 empty onclip6 empty 17 7 0 10 -262144 -1 -1
1 1;
#X obj 631 12 tgl 15 0 empty onclip7 empty 17 7 0 10 -262144 -1 -1
1 1;
#X obj 681 12 tgl 15 0 empty onclip8 empty 17 7 0 10 -262144 -1 -1
1 1;
#X obj 242 126 f;
#X obj 272 126 + 1;
#X obj 242 152 mod 8;
#X obj 242 178 route 1 2 3 4 5 6 7;
#X obj 242 100 until;
#X obj 292 12 bng 15 250 50 0 empty empty empty 17 7 0 10 -262144 -1
-1;
#X msg 242 72 8;
#X obj 242 226 s seqstep;
#X obj 218 28 r clock;
#X obj 286 597 dac~;
#X msg 543 130 1 0 0 0 0 0 0 0;
#X msg 543 155 0 1 0 0 0 0 0 0;
#X msg 543 181 0 0 1 0 0 0 0 0;
#X msg 543 207 0 0 0 1 0 0 0 0;
#X msg 543 233 0 0 0 0 1 0 0 0;
#X msg 543 259 0 0 0 0 0 1 0 0;
#X msg 543 285 0 0 0 0 0 0 1 0;
#X msg 543 312 0 0 0 0 0 0 0 1;
#X obj 177 513 *~;
#X obj 543 339 unpack f f f f f f f f;
#X obj 195 485 lop~ 20;
#X obj 237 513 *~;
#X obj 255 485 lop~ 20;
#X obj 297 513 *~;
#X obj 315 485 lop~ 20;
#X obj 357 513 *~;
#X obj 375 485 lop~ 20;
#X obj 418 513 *~;
#X obj 436 485 lop~ 20;
#X obj 478 513 *~;
#X obj 496 485 lop~ 20;
#X obj 537 513 *~;
#X obj 555 485 lop~ 20;
#X obj 597 513 *~;
#X obj 615 485 lop~ 20;
#X obj 195 425 +~;
#X obj 196 452 clip~ 0 1;
#X obj 266 425 +~;
#X obj 267 452 clip~ 0 1;
#X obj 338 425 +~;
#X obj 339 452 clip~ 0 1;
#X obj 409 425 +~;
#X obj 410 452 clip~ 0 1;
#X obj 482 425 +~;
#X obj 483 452 clip~ 0 1;
#X obj 553 425 +~;
#X obj 554 452 clip~ 0 1;
#X obj 625 425 +~;
#X obj 626 452 clip~ 0 1;
#X obj 696 425 +~;
#X obj 697 452 clip~ 0 1;
#X obj 290 569 *~;
#X text 353 564 Maybe add panning in the future;
#X obj 177 394 r~ sound1;
#X obj 248 394 r~ sound2;
#X obj 319 394 r~ sound3;
#X obj 390 394 r~ sound4;
#X obj 462 394 r~ sound5;
#X obj 533 394 r~ sound6;
#X obj 604 394 r~ sound7;
#X obj 675 394 r~ sound8;
#X floatatom 330 546 5 0 0 0 - mastvol -;
#X obj 703 257 r stepblend;
#X connect 0 0 20 1;
#X connect 1 0 20 1;
#X connect 2 0 20 1;
#X connect 3 0 20 1;
#X connect 4 0 20 1;
#X connect 5 0 20 1;
#X connect 6 0 20 1;
#X connect 7 0 20 1;
#X connect 8 0 0 1;
#X connect 9 0 1 1;
#X connect 10 0 2 1;
#X connect 11 0 3 1;
#X connect 12 0 4 1;
#X connect 13 0 5 1;
#X connect 14 0 6 1;
#X connect 15 0 7 1;
#X connect 16 0 17 0;
#X connect 16 0 18 0;
#X connect 17 0 16 1;
#X connect 18 0 19 0;
#X connect 18 0 23 0;
#X connect 19 0 1 0;
#X connect 19 0 27 0;
#X connect 19 1 2 0;
#X connect 19 1 28 0;
#X connect 19 2 3 0;
#X connect 19 2 29 0;
#X connect 19 3 4 0;
#X connect 19 3 30 0;
#X connect 19 4 5 0;
#X connect 19 4 31 0;
#X connect 19 5 6 0;
#X connect 19 5 32 0;
#X connect 19 6 7 0;
#X connect 19 6 33 0;
#X connect 19 7 21 0;
#X connect 19 7 26 0;
#X connect 20 0 16 0;
#X connect 21 0 0 0;
#X connect 22 0 20 0;
#X connect 24 0 22 0;
#X connect 26 0 35 0;
#X connect 27 0 35 0;
#X connect 28 0 35 0;
#X connect 29 0 35 0;
#X connect 30 0 35 0;
#X connect 31 0 35 0;
#X connect 32 0 35 0;
#X connect 33 0 35 0;
#X connect 34 0 67 0;
#X connect 35 0 51 0;
#X connect 35 1 53 0;
#X connect 35 2 55 0;
#X connect 35 3 57 0;
#X connect 35 4 59 0;
#X connect 35 5 61 0;
#X connect 35 6 63 0;
#X connect 35 7 65 0;
#X connect 36 0 34 1;
#X connect 37 0 67 0;
#X connect 38 0 37 1;
#X connect 39 0 67 0;
#X connect 40 0 39 1;
#X connect 41 0 67 0;
#X connect 42 0 41 1;
#X connect 43 0 67 0;
#X connect 44 0 43 1;
#X connect 45 0 67 0;
#X connect 46 0 45 1;
#X connect 47 0 67 0;
#X connect 48 0 47 1;
#X connect 49 0 67 0;
#X connect 50 0 49 1;
#X connect 51 0 52 0;
#X connect 52 0 36 0;
#X connect 53 0 54 0;
#X connect 54 0 38 0;
#X connect 55 0 56 0;
#X connect 56 0 40 0;
#X connect 57 0 58 0;
#X connect 58 0 42 0;
#X connect 59 0 60 0;
#X connect 60 0 44 0;
#X connect 61 0 62 0;
#X connect 62 0 46 0;
#X connect 63 0 64 0;
#X connect 64 0 48 0;
#X connect 65 0 66 0;
#X connect 66 0 50 0;
#X connect 67 0 25 0;
#X connect 67 0 25 1;
#X connect 69 0 34 0;
#X connect 70 0 37 0;
#X connect 71 0 39 0;
#X connect 72 0 41 0;
#X connect 73 0 43 0;
#X connect 74 0 45 0;
#X connect 75 0 47 0;
#X connect 76 0 49 0;
#X connect 77 0 67 1;
#X connect 78 0 50 1;
#X connect 78 0 48 1;
#X connect 78 0 46 1;
#X connect 78 0 44 1;
#X connect 78 0 42 1;
#X connect 78 0 40 1;
#X connect 78 0 38 1;
#X connect 78 0 36 1;
#X restore 1178 84 pd skip_seq;
#N canvas 0 50 1144 620 word_gen 0;
#X obj 67 64 metro 500;
#X obj 67 112 f;
#X obj 67 91 bng 15 250 50 0 empty empty empty 17 7 0 10 -262144 -1
-1;
#X obj 102 112 + 1;
#X obj 67 138 mod 8;
#X floatatom 67 164 5 0 0 0 - - -;
#X obj 67 43 tgl 15 0 empty meton empty 17 7 0 10 -262144 -1 -1 0 1
;
#X obj 127 8 r metstep;
#X obj 127 34 clip 1 10000;
#N canvas 238 98 1078 522 steplength 0;
#X floatatom 670 57 5 0 0 0 - - -;
#X obj 670 31 expr 1000/($f1/60);
#X obj 670 5 r bpm;
#X obj 802 64 r steps1;
#X obj 814 90 r steps2;
#X obj 826 116 r steps3;
#X obj 838 142 r steps4;
#X obj 850 168 r steps5;
#X obj 862 194 r steps6;
#X obj 874 220 r steps7;
#X obj 886 246 r steps8;
#X obj 724 160 *;
#X obj 736 186 *;
#X obj 748 212 *;
#X obj 760 238 *;
#X obj 772 264 *;
#X obj 784 290 *;
#X obj 796 316 *;
#X obj 808 342 *;
#X obj 325 47 r trig1;
#X msg 565 22 set \$1;
#X msg 565 51 0;
#X msg 576 82 set \$1;
#X msg 576 111 0;
#X msg 585 142 set \$1;
#X msg 585 171 0;
#X msg 596 202 set \$1;
#X msg 596 231 0;
#X msg 607 262 set \$1;
#X msg 607 291 0;
#X msg 618 322 set \$1;
#X msg 618 351 0;
#X msg 627 382 set \$1;
#X msg 627 411 0;
#X msg 638 442 set \$1;
#X msg 638 471 0;
#X obj 670 114 t b f;
#X obj 460 436 s metstep;
#X obj 335 75 r trig2;
#X obj 345 103 r trig3;
#X obj 355 131 r trig4;
#X obj 365 157 r trig5;
#X obj 375 185 r trig6;
#X obj 385 213 r trig7;
#X obj 395 241 r trig8;
#X obj 849 298 + 1;
#X obj 836 272 + 1;
#X obj 820 246 + 1;
#X obj 807 220 + 1;
#X obj 794 178 + 1;
#X obj 781 152 + 1;
#X obj 765 126 + 1;
#X obj 752 100 + 1;
#X connect 0 0 36 0;
#X connect 1 0 0 0;
#X connect 2 0 1 0;
#X connect 3 0 52 0;
#X connect 4 0 51 0;
#X connect 5 0 50 0;
#X connect 6 0 49 0;
#X connect 7 0 48 0;
#X connect 8 0 47 0;
#X connect 9 0 46 0;
#X connect 10 0 45 0;
#X connect 11 0 20 0;
#X connect 12 0 22 0;
#X connect 13 0 24 0;
#X connect 14 0 26 0;
#X connect 15 0 28 0;
#X connect 16 0 30 0;
#X connect 17 0 32 0;
#X connect 18 0 34 0;
#X connect 19 0 21 0;
#X connect 20 0 21 0;
#X connect 21 0 37 0;
#X connect 22 0 23 0;
#X connect 23 0 37 0;
#X connect 24 0 25 0;
#X connect 25 0 37 0;
#X connect 26 0 27 0;
#X connect 27 0 37 0;
#X connect 28 0 29 0;
#X connect 29 0 37 0;
#X connect 30 0 31 0;
#X connect 31 0 37 0;
#X connect 32 0 33 0;
#X connect 33 0 37 0;
#X connect 34 0 35 0;
#X connect 35 0 37 0;
#X connect 36 0 11 0;
#X connect 36 0 12 0;
#X connect 36 0 13 0;
#X connect 36 0 14 0;
#X connect 36 0 15 0;
#X connect 36 0 16 0;
#X connect 36 0 17 0;
#X connect 36 0 18 0;
#X connect 36 1 18 1;
#X connect 36 1 17 1;
#X connect 36 1 16 1;
#X connect 36 1 15 1;
#X connect 36 1 14 1;
#X connect 36 1 12 1;
#X connect 36 1 11 1;
#X connect 36 1 13 1;
#X connect 38 0 23 0;
#X connect 39 0 25 0;
#X connect 40 0 27 0;
#X connect 41 0 29 0;
#X connect 42 0 31 0;
#X connect 43 0 33 0;
#X connect 44 0 35 0;
#X connect 45 0 18 0;
#X connect 46 0 17 0;
#X connect 47 0 16 0;
#X connect 48 0 15 0;
#X connect 49 0 14 0;
#X connect 50 0 13 0;
#X connect 51 0 12 0;
#X connect 52 0 11 0;
#X restore 232 34 pd steplength;
#X obj 214 157 send clock;
#X obj 149 108 + 1;
#X obj 69 287 route 1 2 3 4 5 6 7;
#X msg 293 180 1 0 0 0 0 0 0 0;
#X msg 293 205 0 1 0 0 0 0 0 0;
#X msg 293 231 0 0 1 0 0 0 0 0;
#X msg 293 257 0 0 0 1 0 0 0 0;
#X msg 293 283 0 0 0 0 1 0 0 0;
#X msg 293 309 0 0 0 0 0 1 0 0;
#X msg 293 335 0 0 0 0 0 0 1 0;
#X msg 293 362 0 0 0 0 0 0 0 1;
#X obj 293 389 unpack f f f f f f f f;
#X obj 14 379 s trig1;
#X obj 25 406 s trig2;
#X obj 74 379 s trig3;
#X obj 85 406 s trig4;
#X obj 134 379 s trig5;
#X obj 145 406 s trig6;
#X obj 194 379 s trig7;
#X obj 205 406 s trig8;
#X obj 293 430 s tog1;
#X obj 294 457 s tog2;
#X obj 344 430 s tog3;
#X obj 345 457 s tog4;
#X obj 396 430 s tog5;
#X obj 397 457 s tog6;
#X obj 448 430 s tog7;
#X obj 449 457 s tog8;
#X obj 149 82 r temposeqlen;
#X connect 0 0 2 0;
#X connect 1 0 3 0;
#X connect 1 0 4 0;
#X connect 2 0 1 0;
#X connect 2 0 10 0;
#X connect 3 0 1 1;
#X connect 4 0 5 0;
#X connect 5 0 12 0;
#X connect 6 0 0 0;
#X connect 7 0 8 0;
#X connect 8 0 0 1;
#X connect 11 0 4 1;
#X connect 12 0 14 0;
#X connect 12 0 23 0;
#X connect 12 1 15 0;
#X connect 12 1 24 0;
#X connect 12 2 16 0;
#X connect 12 2 25 0;
#X connect 12 3 17 0;
#X connect 12 3 26 0;
#X connect 12 4 18 0;
#X connect 12 4 27 0;
#X connect 12 5 19 0;
#X connect 12 5 28 0;
#X connect 12 6 20 0;
#X connect 12 6 29 0;
#X connect 12 7 13 0;
#X connect 12 7 22 0;
#X connect 13 0 21 0;
#X connect 14 0 21 0;
#X connect 15 0 21 0;
#X connect 16 0 21 0;
#X connect 17 0 21 0;
#X connect 18 0 21 0;
#X connect 19 0 21 0;
#X connect 20 0 21 0;
#X connect 21 0 30 0;
#X connect 21 1 31 0;
#X connect 21 2 32 0;
#X connect 21 3 33 0;
#X connect 21 4 34 0;
#X connect 21 5 35 0;
#X connect 21 6 36 0;
#X connect 21 7 37 0;
#X connect 38 0 11 0;
#X restore 1178 58 pd word_gen;
#X obj 63 231 hradio 15 1 0 8 temposeqlen init8 empty 0 -8 0 10 -262144
-1 -1 7;
#X obj 361 106 tgl 15 0 empty onclip2 empty 17 7 0 10 -262144 -1 -1
1 1;
#X obj 376 106 tgl 15 0 empty onclip3 empty 17 7 0 10 -262144 -1 -1
1 1;
#X obj 391 106 tgl 15 0 empty onclip4 empty 17 7 0 10 -262144 -1 -1
1 1;
#X obj 406 106 tgl 15 0 empty onclip5 empty 17 7 0 10 -262144 -1 -1
1 1;
#X obj 421 106 tgl 15 0 empty onclip6 empty 17 7 0 10 -262144 -1 -1
1 1;
#X obj 436 106 tgl 15 0 empty onclip7 empty 17 7 0 10 -262144 -1 -1
1 1;
#X obj 451 106 tgl 15 0 empty onclip8 empty 17 7 0 10 -262144 -1 -1
1 1;
#N canvas 256 108 760 300 control 0;
#X obj 66 49 key;
#X obj 66 92 sel 115;
#X obj 125 92 sel 100;
#X obj 184 92 sel 102;
#X obj 243 92 sel 103;
#X obj 302 92 sel 104;
#X obj 361 92 sel 106;
#X obj 420 92 sel 107;
#X obj 479 92 sel 108;
#X obj 66 120 tgl 15 0 onclip1 empty empty 17 7 0 10 -262144 -1 -1
1 1;
#X obj 125 120 tgl 15 0 onclip2 empty empty 17 7 0 10 -262144 -1 -1
1 1;
#X obj 184 120 tgl 15 0 onclip3 empty empty 17 7 0 10 -262144 -1 -1
1 1;
#X obj 243 120 tgl 15 0 onclip4 empty empty 17 7 0 10 -262144 -1 -1
1 1;
#X obj 302 120 tgl 15 0 onclip5 empty empty 17 7 0 10 -262144 -1 -1
1 1;
#X obj 361 120 tgl 15 0 onclip6 empty empty 17 7 0 10 -262144 -1 -1
1 1;
#X obj 420 120 tgl 15 0 onclip7 empty empty 17 7 0 10 -262144 -1 -1
1 1;
#X obj 479 120 tgl 15 0 onclip8 empty empty 17 7 0 10 -262144 -1 -1
1 1;
#X obj 435 17 r onallsources;
#X connect 0 0 1 0;
#X connect 0 0 2 0;
#X connect 0 0 3 0;
#X connect 0 0 4 0;
#X connect 0 0 5 0;
#X connect 0 0 6 0;
#X connect 0 0 8 0;
#X connect 0 0 7 0;
#X connect 1 0 9 0;
#X connect 2 0 10 0;
#X connect 3 0 11 0;
#X connect 4 0 12 0;
#X connect 5 0 13 0;
#X connect 6 0 14 0;
#X connect 7 0 15 0;
#X connect 8 0 16 0;
#X connect 17 0 16 0;
#X connect 17 0 15 0;
#X connect 17 0 14 0;
#X connect 17 0 13 0;
#X connect 17 0 12 0;
#X connect 17 0 11 0;
#X connect 17 0 10 0;
#X connect 17 0 9 0;
#X restore 1178 110 pd control;
#X text 350 87 s d f g h j k l;
#X text 61 208 #Steps tempo sequence;
#X text 42 25 Tempo Seqencer;
#X text 49 103 1;
#X text 49 163 5;
#X text 29 124 step len;
#X text 45 259 Sound Sources;
#X obj 63 186 tgl 15 0 empty tog1 empty 17 7 0 10 -262144 -1 -1 0 1
;
#X obj 88 186 tgl 15 0 empty tog2 empty 17 7 0 10 -262144 -1 -1 0 1
;
#X obj 113 186 tgl 15 0 empty tog3 empty 17 7 0 10 -262144 -1 -1 0
1;
#X obj 138 186 tgl 15 0 empty tog4 empty 17 7 0 10 -262144 -1 -1 0
1;
#X obj 164 186 tgl 15 0 empty tog5 empty 17 7 0 10 -262144 -1 -1 0
1;
#X obj 188 186 tgl 15 0 empty tog6 empty 17 7 0 10 -262144 -1 -1 0
1;
#X obj 213 186 tgl 15 0 empty tog7 empty 17 7 0 10 -262144 -1 -1 0
1;
#X obj 238 186 tgl 15 0 empty tog8 empty 17 7 0 10 -262144 -1 -1 0
1;
#N canvas 0 50 607 616 soundmanage 0;
#X obj 10 187 phasor~;
#X obj 10 223 *~;
#X obj 69 162 r filelength1;
#X floatatom 69 188 10 0 0 0 - - -;
#X obj 10 137 expr 1/($f1/44100);
#X floatatom 10 163 5 0 0 0 - - -;
#X obj 10 111 + 1e-005;
#X obj 14 9 hsl 128 15 0.5 2 0 0 empty rate1 empty -2 -8 0 10 -262144
-1 -1 4233 1;
#X obj 10 60 *;
#X floatatom 10 86 10 0 0 0 - - -;
#X obj 10 31 t f b;
#X obj 175 186 phasor~;
#X obj 175 222 *~;
#X floatatom 234 187 10 0 0 0 - - -;
#X obj 175 136 expr 1/($f1/44100);
#X floatatom 175 162 5 0 0 0 - - -;
#X obj 175 110 + 1e-005;
#X obj 179 8 hsl 128 15 0.5 2 0 0 empty rate2 empty -2 -8 0 10 -262144
-1 -1 4233 1;
#X obj 175 59 *;
#X floatatom 175 85 10 0 0 0 - - -;
#X obj 175 30 t f b;
#X obj 338 185 phasor~;
#X obj 338 221 *~;
#X floatatom 397 186 10 0 0 0 - - -;
#X obj 338 135 expr 1/($f1/44100);
#X floatatom 338 161 5 0 0 0 - - -;
#X obj 338 109 + 1e-005;
#X obj 342 7 hsl 128 15 0.5 2 0 0 empty rate3 empty -2 -8 0 10 -262144
-1 -1 4233 1;
#X obj 338 58 *;
#X floatatom 338 84 10 0 0 0 - - -;
#X obj 338 29 t f b;
#X obj 504 185 phasor~;
#X obj 503 220 *~;
#X floatatom 563 186 10 0 0 0 - - -;
#X obj 504 135 expr 1/($f1/44100);
#X floatatom 503 160 5 0 0 0 - - -;
#X obj 504 109 + 1e-005;
#X obj 508 7 hsl 128 15 0.5 2 0 0 empty rate4 empty -2 -8 0 10 -262144
-1 -1 4233 1;
#X obj 503 57 *;
#X floatatom 504 84 10 0 0 0 - - -;
#X obj 503 28 t f b;
#X obj 8 504 phasor~;
#X obj 8 540 *~;
#X floatatom 67 505 10 0 0 0 - - -;
#X obj 8 454 expr 1/($f1/44100);
#X floatatom 8 480 5 0 0 0 - - -;
#X obj 8 428 + 1e-005;
#X obj 11 326 hsl 128 15 0.5 2 0 0 empty rate5 empty -2 -8 0 10 -262144
-1 -1 4233 1;
#X obj 8 377 *;
#X floatatom 8 403 10 0 0 0 - - -;
#X obj 8 348 t f b;
#X obj 173 503 phasor~;
#X obj 173 539 *~;
#X floatatom 232 504 10 0 0 0 - - -;
#X obj 173 453 expr 1/($f1/44100);
#X floatatom 173 479 5 0 0 0 - - -;
#X obj 173 427 + 1e-005;
#X obj 177 325 hsl 128 15 0.5 2 0 0 empty rate6 empty -2 -8 0 10 -262144
-1 -1 4233 1;
#X obj 173 376 *;
#X floatatom 173 402 10 0 0 0 - - -;
#X obj 173 347 t f b;
#X obj 336 502 phasor~;
#X obj 336 538 *~;
#X floatatom 395 503 10 0 0 0 - - -;
#X obj 336 452 expr 1/($f1/44100);
#X floatatom 336 478 5 0 0 0 - - -;
#X obj 336 426 + 1e-005;
#X obj 340 324 hsl 128 15 0.5 2 0 0 empty rate7 empty -2 -8 0 10 -262144
-1 -1 4233 1;
#X obj 336 375 *;
#X floatatom 336 401 10 0 0 0 - - -;
#X obj 336 346 t f b;
#X obj 501 501 phasor~;
#X obj 501 537 *~;
#X floatatom 560 502 10 0 0 0 - - -;
#X obj 501 451 expr 1/($f1/44100);
#X floatatom 501 477 5 0 0 0 - - -;
#X obj 501 425 + 1e-005;
#X obj 505 323 hsl 128 15 0.5 2 0 0 empty rate8 empty -2 -8 0 10 -262144
-1 -1 4233 1;
#X obj 501 374 *;
#X floatatom 501 400 10 0 0 0 - - -;
#X obj 501 345 t f b;
#X obj 9 250 tabread~ source1;
#X obj 234 161 r filelength2;
#X obj 174 249 tabread~ source2;
#X obj 397 160 r filelength3;
#X obj 337 248 tabread~ source3;
#X obj 563 160 r filelength4;
#X obj 503 248 tabread~ source4;
#X obj 67 479 r filelength5;
#X obj 7 567 tabread~ source5;
#X obj 232 478 r filelength6;
#X obj 172 566 tabread~ source6;
#X obj 395 477 r filelength7;
#X obj 335 565 tabread~ source7;
#X obj 560 476 r filelength8;
#X obj 500 564 tabread~ source8;
#X obj 9 284 s~ sound1;
#X obj 175 282 s~ sound2;
#X obj 338 281 s~ sound3;
#X obj 504 279 s~ sound4;
#X obj 6 597 s~ sound5;
#X obj 172 595 s~ sound6;
#X obj 335 594 s~ sound7;
#X obj 501 592 s~ sound8;
#X connect 0 0 1 0;
#X connect 1 0 81 0;
#X connect 2 0 3 0;
#X connect 3 0 1 1;
#X connect 3 0 8 0;
#X connect 4 0 5 0;
#X connect 5 0 0 0;
#X connect 6 0 4 0;
#X connect 7 0 10 0;
#X connect 8 0 9 0;
#X connect 9 0 6 0;
#X connect 10 0 8 1;
#X connect 10 1 8 0;
#X connect 11 0 12 0;
#X connect 12 0 83 0;
#X connect 13 0 12 1;
#X connect 13 0 18 0;
#X connect 14 0 15 0;
#X connect 15 0 11 0;
#X connect 16 0 14 0;
#X connect 17 0 20 0;
#X connect 18 0 19 0;
#X connect 19 0 16 0;
#X connect 20 0 18 1;
#X connect 20 1 18 0;
#X connect 21 0 22 0;
#X connect 22 0 85 0;
#X connect 23 0 22 1;
#X connect 23 0 28 0;
#X connect 24 0 25 0;
#X connect 25 0 21 0;
#X connect 26 0 24 0;
#X connect 27 0 30 0;
#X connect 28 0 29 0;
#X connect 29 0 26 0;
#X connect 30 0 28 1;
#X connect 30 1 28 0;
#X connect 31 0 32 0;
#X connect 32 0 87 0;
#X connect 33 0 32 1;
#X connect 33 0 38 0;
#X connect 34 0 35 0;
#X connect 35 0 31 0;
#X connect 36 0 34 0;
#X connect 37 0 40 0;
#X connect 38 0 39 0;
#X connect 39 0 36 0;
#X connect 40 0 38 1;
#X connect 40 1 38 0;
#X connect 41 0 42 0;
#X connect 42 0 89 0;
#X connect 43 0 42 1;
#X connect 43 0 48 0;
#X connect 44 0 45 0;
#X connect 45 0 41 0;
#X connect 46 0 44 0;
#X connect 47 0 50 0;
#X connect 48 0 49 0;
#X connect 49 0 46 0;
#X connect 50 0 48 1;
#X connect 50 1 48 0;
#X connect 51 0 52 0;
#X connect 52 0 91 0;
#X connect 53 0 52 1;
#X connect 53 0 58 0;
#X connect 54 0 55 0;
#X connect 55 0 51 0;
#X connect 56 0 54 0;
#X connect 57 0 60 0;
#X connect 58 0 59 0;
#X connect 59 0 56 0;
#X connect 60 0 58 1;
#X connect 60 1 58 0;
#X connect 61 0 62 0;
#X connect 62 0 93 0;
#X connect 63 0 62 1;
#X connect 63 0 68 0;
#X connect 64 0 65 0;
#X connect 65 0 61 0;
#X connect 66 0 64 0;
#X connect 67 0 70 0;
#X connect 68 0 69 0;
#X connect 69 0 66 0;
#X connect 70 0 68 1;
#X connect 70 1 68 0;
#X connect 71 0 72 0;
#X connect 72 0 95 0;
#X connect 73 0 72 1;
#X connect 73 0 78 0;
#X connect 74 0 75 0;
#X connect 75 0 71 0;
#X connect 76 0 74 0;
#X connect 77 0 80 0;
#X connect 78 0 79 0;
#X connect 79 0 76 0;
#X connect 80 0 78 1;
#X connect 80 1 78 0;
#X connect 81 0 96 0;
#X connect 82 0 13 0;
#X connect 83 0 97 0;
#X connect 84 0 23 0;
#X connect 85 0 98 0;
#X connect 86 0 33 0;
#X connect 87 0 99 0;
#X connect 88 0 43 0;
#X connect 89 0 100 0;
#X connect 90 0 53 0;
#X connect 91 0 101 0;
#X connect 92 0 63 0;
#X connect 93 0 102 0;
#X connect 94 0 73 0;
#X connect 95 0 103 0;
#X restore 1178 32 pd soundmanage;
#N canvas 0 50 450 250 (subpatch) 0;
#X array source1 1726 float 2;
#X coords 0 1 1726 -1 200 140 1 0 0;
#X restore 50 313 graph;
#N canvas 0 50 450 250 (subpatch) 0;
#X array source2 1726 float 2;
#X coords 0 1 1726 -1 200 140 1 0 0;
#X restore 50 481 graph;
#N canvas 0 50 450 250 (subpatch) 0;
#X array source3 1726 float 2;
#X coords 0 1 1726 -1 200 140 1 0 0;
#X restore 333 313 graph;
#N canvas 0 50 450 250 (subpatch) 0;
#X array source4 1726 float 2;
#X coords 0 1 1726 -1 200 140 1 0 0;
#X restore 334 481 graph;
#N canvas 0 50 450 250 (subpatch) 0;
#X array source5 1726 float 2;
#X coords 0 1 1726 -1 200 140 1 0 0;
#X restore 616 313 graph;
#N canvas 0 50 450 250 (subpatch) 0;
#X array source6 1726 float 2;
#X coords 0 1 1726 -1 200 140 1 0 0;
#X restore 616 481 graph;
#N canvas 0 50 450 250 (subpatch) 0;
#X array source7 1726 float 2;
#X coords 0 1 1726 -1 200 140 1 0 0;
#X restore 899 313 graph;
#N canvas 0 50 450 250 (subpatch) 0;
#X array source8 1726 float 2;
#X coords 0 1 1726 -1 200 140 1 0 0;
#X restore 899 481 graph;
#X obj 276 438 bng 15 250 50 0 load1 empty load 17 7 0 10 -262144 -1
-1;
#X obj 276 605 bng 15 250 50 0 load2 empty load 17 7 0 10 -262144 -1
-1;
#X obj 559 438 bng 15 250 50 0 load3 empty load 17 7 0 10 -262144 -1
-1;
#X obj 559 605 bng 15 250 50 0 load4 empty load 17 7 0 10 -262144 -1
-1;
#X obj 842 438 bng 15 250 50 0 load5 empty load 17 7 0 10 -262144 -1
-1;
#X obj 842 605 bng 15 250 50 0 load6 empty load 17 7 0 10 -262144 -1
-1;
#X obj 1125 438 bng 15 250 50 0 load7 load7 load 17 7 0 10 -262144
-1 -1;
#X obj 1125 605 bng 15 250 50 0 load8 empty load 17 7 0 10 -262144
-1 -1;
#X obj 256 315 vsl 15 135 0.5 2 0 0 rate1 onallsources tune 0 -9 0
10 -262144 -1 -1 4467 1;
#X obj 539 315 vsl 15 135 0.5 2 0 0 rate3 onallsources tune 0 -9 0
10 -262144 -1 -1 4467 1;
#X obj 822 315 vsl 15 135 0.5 2 0 0 rate5 onallsources tune 0 -9 0
10 -262144 -1 -1 4467 1;
#X obj 1105 315 vsl 15 135 0.5 2 0 0 rate7 onallsources tune 0 -9 0
10 -262144 -1 -1 4467 1;
#X obj 256 483 vsl 15 135 0.5 2 0 0 rate2 onallsources tune 0 -9 0
10 -262144 -1 -1 4467 1;
#X obj 539 483 vsl 15 135 0.5 2 0 0 rate4 onallsources tune 0 -9 0
10 -262144 -1 -1 4467 1;
#X obj 822 483 vsl 15 135 0.5 2 0 0 rate6 onallsources tune 0 -9 0
10 -262144 -1 -1 4467 1;
#X obj 1105 483 vsl 15 135 0.5 2 0 0 rate8 onallsources tune 0 -9 0
10 -262144 -1 -1 4467 1;
#N canvas 171 163 1126 300 loadsource 0;
#X obj 13 13 r load1;
#X obj 13 87 soundfiler;
#X obj 13 39 openpanel;
#X msg 13 64 read -resize \$1 source1;
#X obj 13 110 send filelength1;
#X obj 193 86 soundfiler;
#X obj 193 38 openpanel;
#X obj 368 85 soundfiler;
#X obj 368 37 openpanel;
#X obj 548 84 soundfiler;
#X obj 548 36 openpanel;
#X obj 13 219 soundfiler;
#X obj 13 171 openpanel;
#X obj 193 218 soundfiler;
#X obj 193 170 openpanel;
#X obj 368 217 soundfiler;
#X obj 368 169 openpanel;
#X obj 548 216 soundfiler;
#X obj 548 168 openpanel;
#X obj 193 12 r load2;
#X msg 193 63 read -resize \$1 source2;
#X obj 193 109 send filelength2;
#X obj 368 11 r load3;
#X msg 368 62 read -resize \$1 source3;
#X obj 368 108 send filelength3;
#X obj 548 10 r load4;
#X msg 548 61 read -resize \$1 source4;
#X obj 548 107 send filelength4;
#X obj 13 145 r load5;
#X msg 13 196 read -resize \$1 source5;
#X obj 13 242 send filelength5;
#X obj 193 144 r load6;
#X msg 193 195 read -resize \$1 source6;
#X obj 193 241 send filelength6;
#X obj 368 143 r load7;
#X msg 368 194 read -resize \$1 source7;
#X obj 368 240 send filelength7;
#X obj 548 142 r load8;
#X msg 548 193 read -resize \$1 source8;
#X obj 548 239 send filelength8;
#X connect 0 0 2 0;
#X connect 1 0 4 0;
#X connect 2 0 3 0;
#X connect 3 0 1 0;
#X connect 5 0 21 0;
#X connect 6 0 20 0;
#X connect 7 0 24 0;
#X connect 8 0 23 0;
#X connect 9 0 27 0;
#X connect 10 0 26 0;
#X connect 11 0 30 0;
#X connect 12 0 29 0;
#X connect 13 0 33 0;
#X connect 14 0 32 0;
#X connect 15 0 36 0;
#X connect 16 0 35 0;
#X connect 17 0 39 0;
#X connect 18 0 38 0;
#X connect 19 0 6 0;
#X connect 20 0 5 0;
#X connect 22 0 8 0;
#X connect 23 0 7 0;
#X connect 25 0 10 0;
#X connect 26 0 9 0;
#X connect 28 0 12 0;
#X connect 29 0 11 0;
#X connect 31 0 14 0;
#X connect 32 0 13 0;
#X connect 34 0 16 0;
#X connect 35 0 15 0;
#X connect 37 0 18 0;
#X connect 38 0 17 0;
#X restore 1178 136 pd loadsource;
#X text 367 52 use keyboard keys to toggle sources;
#X text 352 34 Multiplexer;
#X text 640 102 slews the volume change between sources;
#N canvas 640 148 450 300 initialize 1;
#X obj 44 90 loadbang;
#X msg 44 116 1;
#X obj 44 163 s onallsources;
#X msg 235 124 240;
#X obj 235 164 s initbpm;
#X obj 163 164 s init8;
#X connect 0 0 1 0;
#X connect 0 0 3 0;
#X connect 1 0 2 0;
#X connect 1 0 5 0;
#X connect 3 0 4 0;
#X restore 1178 163 pd initialize;
